<svg width="128" height="93" viewBox="0 0 128 93" fill="none" xmlns="http://www.w3.org/2000/svg">
<g clip-path="url(#clip0_1_46)">
<path d="M117.217 54.7193C117.217 64.7341 117.175 74.7447 117.26 84.7552C117.276 86.6862 116.717 87.3638 114.757 87.2833C111.377 87.1436 107.985 87.1901 104.605 87.2706C103.008 87.3087 102.369 86.8556 102.373 85.1237C102.428 68.9052 102.419 52.6867 102.386 36.4683C102.386 35.2106 102.779 34.3594 103.775 33.6099C107.955 30.4763 111.881 27.0463 115.523 23.2987C115.887 22.9218 116.239 22.2231 116.866 22.5068C117.476 22.7821 117.205 23.5146 117.209 24.0397C117.226 34.262 117.221 44.4886 117.221 54.7108L117.217 54.7193Z" fill="white"/>
<path d="M105.168 9.67603C112.855 6.41963 120.266 3.27757 128 0C127.437 4.76391 126.92 9.22293 126.382 13.6777C126.022 16.68 125.641 19.6824 125.247 22.6804C125.179 23.2055 125.446 23.9466 124.794 24.1795C124.201 24.3912 123.816 23.7603 123.379 23.4342C121.52 22.0368 119.652 20.6563 117.827 19.2208C116.997 18.5687 116.451 18.4374 115.587 19.3394C96.3419 39.4325 72.4512 50.7219 45.4561 55.8627C32.5261 58.323 19.4648 59.1402 6.37383 56.8578C4.99316 56.6164 3.62096 56.3073 2.24876 55.9939C-0.36858 55.3969 -0.355875 55.363 0.537749 52.8307C0.838447 51.9753 1.16032 51.5688 2.17677 51.8313C13.76 54.8379 25.4618 54.5034 37.2102 53.0763C53.1472 51.1453 68.2541 46.5381 82.514 39.1699C93.6144 33.4321 103.571 26.1528 112.279 17.1628C113.316 16.0914 113.177 15.6637 112.042 14.8719C109.746 13.2712 107.569 11.5096 105.164 9.67603H105.168Z" fill="white" fill-opacity="0.5"/>
<path d="M98.1674 62.3289C98.1674 69.8665 98.125 77.404 98.197 84.9416C98.214 86.6481 97.7439 87.3342 95.9439 87.2749C92.4245 87.1605 88.8966 87.1944 85.3771 87.2622C83.8609 87.2918 83.2468 86.8048 83.2511 85.2084C83.2976 72.8095 83.2892 60.4106 83.2595 48.0118C83.2595 46.8134 83.6492 46.0469 84.7418 45.4964C88.7737 43.4765 92.6955 41.2491 96.4479 38.7423C97.837 37.8149 98.1928 38.1198 98.1843 39.7077C98.142 47.2453 98.1674 54.7829 98.1631 62.3204L98.1674 62.3289Z" fill="white"/>
<path d="M79.1221 67.7365C79.1221 73.5125 79.0755 79.2927 79.1518 85.0686C79.1729 86.7032 78.6774 87.3257 76.9918 87.2791C73.4004 87.1775 69.8047 87.2071 66.209 87.2664C64.7733 87.2876 64.2058 86.7794 64.21 85.3015C64.2524 75.435 64.2524 65.5726 64.21 55.706C64.2016 54.3001 64.858 53.7708 66.0651 53.3346C69.8386 51.9669 73.5952 50.5483 77.3052 49.0111C78.7367 48.4183 79.156 48.6385 79.1433 50.1926C79.0925 56.0405 79.1221 61.8885 79.1264 67.7365H79.1221Z" fill="white"/>
<path d="M59.6825 71.484C59.6825 75.9896 59.6147 80.4995 59.7164 85.0008C59.7545 86.7878 59.098 87.3256 57.387 87.2748C54.0116 87.1774 50.6277 87.1901 47.248 87.2663C45.6894 87.3002 45.1516 86.7286 45.16 85.1745C45.2109 77.0059 45.2193 68.8417 45.1516 60.6731C45.1389 59.1614 45.6937 58.6024 47.1252 58.3102C50.7081 57.5777 54.2699 56.735 57.8105 55.8203C59.3056 55.4307 59.6994 55.9431 59.691 57.3321C59.6571 62.0494 59.6783 66.7667 59.6783 71.484H59.6825Z" fill="white"/>
<path d="M40.6328 73.3092C40.6328 77.1796 40.5692 81.05 40.6624 84.9204C40.7048 86.6058 40.2389 87.3384 38.422 87.2791C34.9068 87.1648 31.3831 87.1986 27.8679 87.2706C26.3602 87.3003 25.7334 86.8429 25.7503 85.2338C25.8139 77.7047 25.8054 70.1756 25.7546 62.6423C25.7461 61.2025 26.2374 60.7071 27.6985 60.6266C31.4128 60.4191 35.1313 60.1227 38.8243 59.6526C40.349 59.4579 40.6667 59.9321 40.6539 61.2787C40.6116 65.2889 40.637 69.299 40.637 73.3134L40.6328 73.3092Z" fill="white"/>
<path d="M6.72932 73.3261C6.72932 69.3837 6.7505 65.4413 6.71662 61.5031C6.70391 60.2412 7.11049 59.6992 8.46575 59.9236C12.1504 60.5334 15.8689 60.796 19.6043 60.6859C21.0231 60.6435 21.616 61.1263 21.6075 62.6253C21.5567 70.2264 21.5609 77.8275 21.6075 85.4286C21.616 86.8175 21.0527 87.2791 19.7229 87.2621C15.9917 87.2156 12.2605 87.2113 8.52928 87.2621C7.1359 87.2833 6.69544 86.6947 6.71238 85.3608C6.7632 81.3507 6.72932 77.3363 6.73356 73.3261H6.72932Z" fill="white"/>
<path d="M61.5547 92.8433C42.7928 92.8433 24.0309 92.8433 5.26904 92.8433C4.77353 92.8433 4.28224 92.8391 3.78673 92.8433C2.94816 92.8433 2.21547 92.7332 2.18583 91.6407C2.14771 90.3957 2.98204 90.3322 3.88837 90.3364C4.31189 90.3364 4.73541 90.3364 5.15893 90.3364C42.8944 90.3364 80.6299 90.328 118.365 90.3788C119.42 90.3788 121.351 89.5022 121.372 91.5391C121.394 93.758 119.365 92.801 118.268 92.8052C99.3664 92.8687 80.4648 92.8518 61.5589 92.8518L61.5547 92.8433Z" fill="white"/>
</g>
<defs>
<clipPath id="clip0_1_46">
<rect width="128" height="93" fill="white"/>
</clipPath>
</defs>
</svg>
