<svg width="103" height="99" viewBox="0 0 103 99" fill="none" xmlns="http://www.w3.org/2000/svg">
<g clip-path="url(#clip0_1_38)">
<path d="M19.3938 49.7658C19.3324 32.8547 33.0915 17.3949 51.618 17.4734C69.5222 17.5475 84.0306 31.9525 84.0306 49.7746C84.0306 67.2523 69.4258 81.7794 51.8064 81.8273C34.073 81.8753 19.4157 67.3787 19.3938 49.7702V49.7658ZM47.7313 62.9025L48.6602 63.5127C48.6602 64.6503 48.5419 65.8009 48.6865 66.9211C48.9582 69.0437 51.079 69.8849 52.674 68.573C59.0102 63.3514 64.6584 57.3977 70.644 51.8013C72.2171 50.3325 72.1996 48.9726 70.6528 47.482C64.8906 41.9335 59.0803 36.4374 53.2831 30.9195C52.4198 30.1001 51.4295 29.7601 50.2903 30.257C49.0852 30.7844 48.6252 31.752 48.612 33.0508C48.6032 34.0664 48.8881 35.1516 48.2615 36.2587C46.5219 34.5066 44.9093 32.8721 43.2837 31.2464C42.3635 30.3267 41.3337 29.6686 39.9666 30.2439C38.5425 30.8454 38.2358 32.0353 38.2358 33.4518C38.2533 44.261 38.2533 55.0702 38.2358 65.8794C38.2358 67.3133 38.6126 68.4858 40.006 69.0655C41.36 69.6277 42.4423 68.9783 43.3099 68.0151C44.8217 66.3414 46.2633 64.6067 47.7313 62.8981V62.9025Z" fill="white" fill-opacity="0.5"/>
<path d="M89.9114 99C89.9114 97.6488 89.8501 96.2977 89.9246 94.9509C90.0385 92.9372 89.0789 92.3096 87.1552 92.3183C77.8964 92.375 68.6375 92.3096 59.3786 92.3881C57.9545 92.4011 57.2797 92.266 57.4462 90.6229C57.6347 88.7574 56.9686 86.5563 57.753 85.0657C58.5242 83.5969 61.035 84.024 62.6913 83.3484C64.5098 82.6075 66.4422 82.0409 68.0985 81.0341C70.0178 79.866 71.9765 79.5957 74.1324 79.635C78.2119 79.7134 82.2958 79.6655 86.3797 79.6568C89.7844 79.648 89.872 79.5565 89.9246 76.0653C89.9421 75.0062 89.9246 73.9471 89.9246 72.8923C90.1218 72.792 90.319 72.6918 90.5161 72.5916C93.9603 76.0915 97.4088 79.587 100.844 83.0956C103.697 86.0072 103.706 86.0246 100.888 88.8751C97.8733 91.9261 94.8367 94.9552 91.7869 97.967C91.3531 98.3985 90.9894 99.0174 89.9027 99H89.9114Z" fill="white"/>
<path d="M13.5354 0C13.5354 1.76957 13.5617 3.20353 13.5267 4.63749C13.4916 6.13683 14.0963 6.96496 15.6957 6.9606C25.4585 6.92573 35.2213 6.93445 44.984 6.82984C45.9042 6.82112 46.1409 6.9606 46.1014 7.76693C46.0927 7.91076 46.1058 8.05895 46.1014 8.20278C46.0839 10.1598 46.5966 12.3303 45.9042 14.0127C45.1768 15.7779 42.6003 15.1416 40.9221 15.8825C38.5427 16.9286 36.0012 17.6085 33.8059 19.0774C32.9777 19.6352 32.0269 19.6309 31.0716 19.6309C26.1903 19.6178 21.3089 19.6178 16.4231 19.6309C13.8597 19.6396 13.6099 19.936 13.5398 22.538C13.5048 23.7497 13.7589 24.9875 13.3076 26.1687C12.6109 26.4564 12.3567 25.881 12.0368 25.5672C8.31226 21.893 4.59206 18.2144 0.902536 14.5096C0.354804 13.9604 -0.587296 13.4766 0.481878 12.4349C4.54824 8.48173 8.54888 4.46315 12.5758 0.47944C12.7204 0.335608 12.9527 0.283305 13.5311 0H13.5354Z" fill="white"/>
<path d="M47.7319 62.9025C46.2596 64.6111 44.8179 66.3458 43.3106 68.0195C42.4429 68.9827 41.365 69.6321 40.0066 69.0699C38.6088 68.4902 38.232 67.3177 38.2364 65.8838C38.2583 55.0746 38.2583 44.2654 38.2364 33.4562C38.2364 32.0397 38.5431 30.8498 39.9672 30.2483C41.33 29.673 42.3641 30.3311 43.2843 31.2508C44.9099 32.8722 46.5225 34.511 48.2621 36.2631C48.893 35.156 48.6038 34.0708 48.6126 33.0552C48.6258 31.7564 49.0815 30.7931 50.2909 30.2614C51.4301 29.7602 52.4204 30.1001 53.2837 30.9239C59.0765 36.4418 64.8868 41.9379 70.6534 47.4864C72.2002 48.977 72.2177 50.3369 70.6446 51.8057C64.659 57.4021 59.0108 63.3558 52.6746 68.5774C51.0796 69.8936 48.9632 69.0481 48.6871 66.9255C48.5425 65.8053 48.6608 64.6547 48.6608 63.5171L47.7319 62.9069V62.9025ZM52.1575 64.4455C52.2934 64.4106 52.473 64.4193 52.565 64.3365C57.4333 59.7644 62.2884 55.1748 67.1698 50.6158C68.0987 49.7485 67.6825 49.1644 66.9638 48.4845C62.5951 44.3308 58.2615 40.1466 53.8708 36.0147C53.3976 35.5701 52.9244 34.912 52.0042 35.0166C51.5572 37.5009 51.7237 39.6323 53.9147 41.4149C56.1626 43.2411 58.187 45.3463 60.2552 47.3861C61.8414 48.9552 61.8327 50.3194 60.2552 51.8841C58.2965 53.8281 56.4079 55.8722 54.2521 57.5764C51.842 59.4811 51.3819 61.7301 52.1794 64.4673C52.1488 64.5108 52.1181 64.5544 52.0874 64.6024C52.1093 64.5501 52.1356 64.4978 52.1575 64.4455ZM41.8207 64.6939C46.7722 59.9649 51.4389 55.5061 56.11 51.0473C57.4158 49.8008 56.7892 48.6501 55.8383 47.6607C54.8918 46.68 53.7394 45.9042 52.7403 44.9715C49.1603 41.611 45.6067 38.2245 41.8207 34.633V64.6939Z" fill="#1F1B69"/>
<path d="M41.8204 64.6939V34.633C45.6064 38.2244 49.16 41.611 52.74 44.9715C53.7347 45.9086 54.8915 46.6844 55.838 47.6607C56.7889 48.6501 57.4155 49.8007 56.1097 51.0473C51.4386 55.5017 46.7719 59.9649 41.8204 64.6939Z" fill="white"/>
<path d="M52.1789 64.4672C51.3814 61.7257 51.8415 59.481 54.2515 57.5764C56.4074 55.8722 58.296 53.828 60.2547 51.8841C61.8321 50.3194 61.8409 48.9552 60.2547 47.3861C58.1908 45.3463 56.162 43.2411 53.9141 41.4149C51.7188 39.6322 51.5523 37.5009 52.0036 35.0165C52.9238 34.9119 53.3971 35.5701 53.8703 36.0146C58.2565 40.1465 62.5946 44.3307 66.9633 48.4844C67.6819 49.1687 68.0982 49.7484 67.1692 50.6158C62.2879 55.1748 57.4371 59.7644 52.5645 64.3365C52.4725 64.4193 52.2972 64.4106 52.157 64.4454L52.1789 64.4672Z" fill="white"/>
<path d="M52.157 64.4454C52.1351 64.4977 52.1088 64.55 52.0869 64.6023C52.1176 64.5588 52.1483 64.5152 52.1789 64.4672L52.157 64.4454Z" fill="white"/>
</g>
<defs>
<clipPath id="clip0_1_38">
<rect width="103" height="99" fill="white"/>
</clipPath>
</defs>
</svg>
