<svg width="84" height="90" viewBox="0 0 84 90" fill="none" xmlns="http://www.w3.org/2000/svg">
<g clip-path="url(#clip0_1_33)">
<path d="M83.9958 19.7667C84.055 26.0026 83.551 31.4729 82.711 36.93C81.4892 44.857 79.1963 52.4416 75.5651 59.6181C72.0504 66.5631 67.3367 72.6391 61.5177 77.8517C56.0213 82.7746 49.8052 86.6534 43.0793 89.7535C42.3424 90.0921 41.6913 90.0677 40.985 89.746C35.248 87.1237 29.8776 83.9145 24.9883 79.9548C18.9841 75.094 14.007 69.366 10.1333 62.7144C6.59191 56.6365 4.13867 50.1429 2.50827 43.337C1.42006 38.7923 0.782409 34.1854 0.3624 29.5353C-0.0595189 24.8777 -0.0117905 20.2144 0.0168465 15.5492C0.0263922 14.0425 0.843502 13.258 2.35745 13.1546C16.2025 12.2084 29.0605 8.35585 40.5611 0.519129C41.5672 -0.165596 42.3977 -0.173121 43.3637 0.48715C47.6478 3.42357 52.2164 5.84456 57.056 7.76706C61.6055 9.57481 66.2905 10.948 71.1054 11.866C74.5036 12.515 77.942 12.8875 81.3899 13.1828C83.194 13.337 83.9806 14.1798 83.9939 15.9687C84.0054 17.4736 83.9958 18.9766 83.9958 19.7648V19.7667ZM42.0044 18.0774C27.7948 17.6297 14.7153 29.9887 14.5301 44.1422C14.3373 58.8337 25.5515 71.2227 40.3759 71.8717C57.4398 72.6166 69.1161 59.8908 69.4654 45.3705C69.8377 29.9586 56.4585 17.7257 42.0025 18.0774H42.0044Z" fill="white"/>
<path d="M42.0052 18.0775C56.4611 17.7257 69.8403 29.9586 69.4681 45.3705C69.1187 59.8909 57.4405 72.6185 40.3786 71.8717C25.5522 71.2246 14.3399 58.8356 14.5327 44.1422C14.7179 29.9868 27.7955 17.6298 42.0071 18.0775H42.0052ZM41.9784 68.9014C55.5352 68.8563 66.4879 58.1565 66.4039 44.9003C66.3199 31.5124 55.5944 20.9593 41.9708 20.9556C27.8757 20.9499 17.5052 32.2836 17.5358 45.0056C17.5682 58.1339 28.5534 69.0124 41.9784 68.9014Z" fill="#1F1B69"/>
<path d="M41.978 68.9015C28.553 69.0124 17.5678 58.134 17.5353 45.0057C17.5048 32.2837 27.8733 20.9519 41.9704 20.9556C55.5939 20.9594 66.3195 31.5124 66.4035 44.9003C66.4875 58.1565 55.5348 68.8544 41.978 68.9015ZM43.0318 40.6246C43.0624 40.1731 43.3335 39.9304 43.5148 39.6539C45.5824 36.4692 47.6634 33.2939 49.7348 30.111C50.2808 29.2702 50.0975 28.8394 49.1582 28.8356C45.949 28.8206 42.7397 28.8394 39.5305 28.83C38.9997 28.83 38.7306 29.0369 38.5912 29.5467C37.0887 35.0527 35.5709 40.555 34.057 46.0572C33.8508 46.8078 34.0952 47.1953 34.9295 47.1859C36.264 47.1708 37.6003 47.2179 38.9329 47.1727C39.6775 47.1483 39.8474 47.3006 39.6202 48.0587C38.4957 51.8266 37.4209 55.6095 36.3613 59.3962C36.2048 59.953 35.674 60.7769 36.4396 61.0647C37.1517 61.3319 37.3693 60.3913 37.6653 59.8872C41.18 53.877 44.6756 47.8556 48.177 41.8379C48.7268 40.8936 48.5893 40.6321 47.4954 40.6246C46.0158 40.6151 44.5362 40.6227 43.0318 40.6227V40.6246Z" fill="white" fill-opacity="0.5"/>
<path d="M43.0323 40.6245C44.5367 40.6245 46.0163 40.617 47.4959 40.6264C48.5898 40.6339 48.7273 40.8935 48.1774 41.8397C44.6761 47.8574 41.1804 53.8789 37.6657 59.889C37.3698 60.3932 37.1522 61.3337 36.4401 61.0666C35.6726 60.7788 36.2052 59.9549 36.3618 59.3981C37.4233 55.6114 38.4962 51.8285 39.6207 48.0606C39.8479 47.3025 39.678 47.1482 38.9334 47.1746C37.6008 47.2197 36.2644 47.1708 34.9299 47.1877C34.0956 47.1972 33.8513 46.8115 34.0575 46.0591C35.5714 40.5568 37.0892 35.0546 38.5917 29.5485C38.731 29.0388 39.0002 28.83 39.5309 28.8318C42.7402 28.8412 45.9495 28.8206 49.1587 28.8375C50.098 28.8412 50.2813 29.272 49.7353 30.1129C47.6658 33.2957 45.5848 36.471 43.5153 39.6558C43.3359 39.9342 43.0648 40.175 43.0323 40.6264V40.6245Z" fill="white"/>
</g>
<defs>
<clipPath id="clip0_1_33">
<rect width="84" height="90" fill="white"/>
</clipPath>
</defs>
</svg>
