<svg width="475" height="472" viewBox="0 0 475 472" fill="none" xmlns="http://www.w3.org/2000/svg">
<path fill-rule="evenodd" clip-rule="evenodd" d="M4.52381 45.2381C4.52381 20.2538 24.7776 0 49.7619 0H185.476C210.46 0 230.714 20.2538 230.714 45.2381V191.19C230.714 210.52 215.044 226.19 195.714 226.19H49.7619C24.7776 226.19 4.52381 205.937 4.52381 180.952V45.2381ZM248.81 114C248.81 89.0157 269.063 68.7619 294.048 68.7619H429.762C454.746 68.7619 475 89.0157 475 114V249.714C475 274.699 454.746 294.952 429.762 294.952H357.381C332.397 294.952 312.143 315.206 312.143 340.19V426.143C312.143 451.127 291.889 471.381 266.905 471.381H45.2381C20.2538 471.381 0 451.127 0 426.143V290.429C0 265.444 20.2538 245.19 45.2381 245.19H203.571C228.556 245.19 248.81 224.937 248.81 199.952V114Z" fill="#F5F1FA"/>
</svg>
